<?xml version="1.0" encoding="UTF-8" standalone="no"?> <svg id="Layer_1" data-name="Layer 1" xmlns="http://www.w3.org/2000/svg" viewBox="0 0 128 128"><defs><style>.cls-1{fill:#1d75b8;}.cls-2{fill:#2d3e50;}</style></defs><title>n</title><path class="cls-1" d="M22.72884,79.606l-3.31356.56888a7.49759,7.49759,0,0,1-7.44773-3.15661l-.51492-.75523L4.59014,90.59446l6.61564-.2615,3.94456,5.31766,7.66675-16.007Z"/><path class="cls-1" d="M36.27723,77.27655l-2.47982,2.27222a7.49552,7.49552,0,0,1-5.061,1.96c-.06863,0-.13568-.00163-.20435-.00326l6.77424,14.14511L39.24916,90.333l6.61564.2615L39.24427,76.76812Z"/><path class="cls-1" d="M5.6863,66.15491a4.21157,4.21157,0,0,0,2.566,3.762l3.97994,1.6874,2.43589,3.57122a4.21158,4.21158,0,0,0,4.1926,1.77754l4.2604-.73223,3.98,1.68736a4.21151,4.21151,0,0,0,4.48805-.77134l3.18819-2.91932,4.2604-.73223A4.21161,4.21161,0,0,0,42.39639,70.41l1.10374-4.17956,3.18827-2.91932a4.2117,4.2117,0,0,0,1.16273-4.40293L46.52,54.79541l1.10378-4.17958a4.21156,4.21156,0,0,0-1.40221-4.33261L42.8783,43.54293l-1.3311-4.11281a4.21146,4.21146,0,0,0-3.522-2.88674l-4.29407-.49772-3.34336-2.74031a4.2115,4.2115,0,0,0-4.52357-.52432l-3.88156,1.90285-4.29412-.49774a4.21155,4.21155,0,0,0-4.08893,2.00453L11.363,39.88995,7.48146,41.79279a4.21157,4.21157,0,0,0-2.35612,3.897L5.24382,50.011l-2.23662,3.6993A4.21155,4.21155,0,0,0,3.132,58.26245l2.43589,3.57122Zm19.54151-25.6417A14.7835,14.7835,0,1,1,10.44429,55.29673,14.78347,14.78347,0,0,1,25.22781,40.51321Z"/><path class="cls-1" d="M21.88274,60.63037a1.96065,1.96065,0,0,0,2.77281,0L32.54993,52.736a1.96075,1.96075,0,0,0-2.77281-2.773l-6.50777,6.50794-2.59065-2.59069a1.96084,1.96084,0,1,0-2.773,2.77306Z"/><path class="cls-1" d="M83.51219,88.35536c1.84471.064,3.6315,1.18724,5.52317,2.3761a20.10942,20.10942,0,0,0,5.29431,2.63512,24.886,24.886,0,0,0,13.50589-.36389,1.9524,1.9524,0,0,0-1.09269-3.7488,20.99144,20.99144,0,0,1-11.37946.34752,17.00952,17.00952,0,0,1-4.25029-2.17587c-2.14177-1.346-4.56915-2.87181-7.465-2.97257a8.24059,8.24059,0,0,0-6.29674,2.60731,7.84234,7.84234,0,0,0-2.108,6.13141,1.95279,1.95279,0,0,0,1.94046,1.75972q.09684,0,.19531-.00981a1.95232,1.95232,0,0,0,1.74978-2.13555,3.887,3.887,0,0,1,1.0705-3.07475A4.33379,4.33379,0,0,1,83.51219,88.35536Z"/><path class="cls-1" d="M47.41232,68.59741l-.77207,2.93046a9.05273,9.05273,0,0,1-.31942.97565h29.757a2.45313,2.45313,0,0,0,0-4.90626H48.50377Z"/><path class="cls-1" d="M108.18968,52.77664a2.45783,2.45783,0,0,0-2.45313-2.45313H52.11149a8.19568,8.19568,0,0,1-.24916,1.41082l-.77207,2.93393.1825.56155h54.46378A2.45787,2.45787,0,0,0,108.18968,52.77664Z"/><path class="cls-1" d="M105.73655,33.0498H41.404a8.62025,8.62025,0,0,1,4.27458,4.90626h60.05793a2.45313,2.45313,0,0,0,0-4.90626Z"/><path class="cls-2" d="M120.98176,5.11423h-95.774a4.61763,4.61763,0,0,0-4.6185,4.6185V30.10885l.61767.07019,2.72337-1.33712a8.63655,8.63655,0,0,1,5.89943-.61065V14.34771h86.53v99.30812h-86.53V94.37114l-4.6009-9.60548-4.63958,9.68619v23.81541a4.61763,4.61763,0,0,0,4.6185,4.6185h95.774a4.61767,4.61767,0,0,0,4.61855-4.6185V9.73274A4.61767,4.61767,0,0,0,120.98176,5.11423Z"/></svg>