<?xml version="1.0" encoding="iso-8859-1"?>
<!-- Generator: Adobe Illustrator 19.0.0, SVG Export Plug-In . SVG Version: 6.00 Build 0)  -->
<svg version="1.1" id="Capa_1" xmlns="http://www.w3.org/2000/svg" xmlns:xlink="http://www.w3.org/1999/xlink" x="0px" y="0px"
	 viewBox="0 0 512 512" style="enable-background:new 0 0 512 512;" xml:space="preserve">
<polygon style="fill:#BD9B7B;" points="145.111,381.883 66.432,30 9.835,30 9.835,0 90.465,0 174.389,375.337 "/>
<path style="fill:#31CA8B;" d="M390.539,37.547c-6.67-10.54-17.06-17.86-29.24-20.59c-12.18-2.74-24.69-0.57-35.24,6.11
	c-4.43,2.81-11.23,8.58-21.85,26.19c0-0.01-0.01-0.01-0.01-0.02c-0.34-0.56-0.67-1.11-1.01-1.65
	c-10.05-16.31-16.54-21.8-20.83-24.52c-10.55-6.68-23.06-8.85-35.24-6.11c-12.18,2.73-22.57,10.05-29.25,20.59
	c-13.78,21.78-7.29,50.7,14.48,64.49h0.01c5,3.17,14.72,7.44,41.61,9.27l-0.03,0.08l2.4,0.07c1.49,0.09,3.02,0.18,4.62,0.25
	c7.84,0.37,15.2,0.47,20.82,0.47c0.48,0,0.95,0,1.41-0.01h1.02c0.77,0,1.57,0.01,2.43,0.01c5.61,0,12.98-0.1,20.81-0.47
	c1.6-0.07,3.13-0.16,4.62-0.25l2.41-0.07l-0.03-0.08c26.89-1.83,36.61-6.1,41.61-9.27C397.829,88.247,404.329,59.326,390.539,37.547
	z M286.979,81.967c-18.6-0.68-34.4-2.69-38.58-5.28c-7.79-4.93-10.12-15.29-5.18-23.09c2.39-3.77,6.11-6.39,10.47-7.37
	s8.84-0.2,12.62,2.19c4.1,2.65,12.63,16,21.19,32.47C287.319,81.257,287.149,81.617,286.979,81.967z M360.009,76.687
	c-4.16,2.59-19.96,4.59-38.58,5.28c-0.17-0.36-0.34-0.72-0.51-1.08c8.54-16.47,17.07-29.81,21.19-32.47
	c2.71-1.72,5.78-2.61,8.92-2.61c1.23,0,2.47,0.14,3.7,0.42c4.36,0.98,8.08,3.6,10.47,7.37
	C370.129,61.397,367.81,71.757,360.009,76.687z"/>
<path style="fill:#00A754;" d="M390.539,37.547c-6.67-10.54-17.06-17.86-29.24-20.59c-12.18-2.74-24.69-0.57-35.24,6.11
	c-4.43,2.81-11.23,8.58-21.85,26.19c0-0.01-0.01-0.01-0.01-0.02v62.93h0.01c0.77,0,1.57,0.01,2.43,0.01c5.61,0,12.98-0.1,20.81-0.47
	c1.6-0.07,3.13-0.16,4.62-0.25l2.41-0.07l-0.03-0.08c26.89-1.83,36.61-6.1,41.61-9.27C397.829,88.247,404.329,59.326,390.539,37.547
	z M360.009,76.687c-4.16,2.59-19.96,4.59-38.58,5.28c-0.17-0.36-0.34-0.72-0.51-1.08c8.54-16.47,17.07-29.81,21.19-32.47
	c2.71-1.72,5.78-2.61,8.92-2.61c1.23,0,2.47,0.14,3.7,0.42c4.36,0.98,8.08,3.6,10.47,7.37
	C370.129,61.397,367.81,71.757,360.009,76.687z"/>
<rect x="190.34" y="80.44" style="fill:#FF6187;" width="227.72" height="183.73"/>
<rect x="304.2" y="80.44" style="fill:#FF0435;" width="113.86" height="183.73"/>
<rect x="280.13" y="80.44" style="fill:#31CA8B;" width="48.15" height="183.73"/>
<rect x="304.2" y="80.44" style="fill:#00A754;" width="24.07" height="183.73"/>
<polygon style="fill:#FFAA20;" points="502.165,187.64 455.825,393.61 147.735,393.61 101.685,187.64 "/>
<polygon style="fill:#FF8900;" points="502.165,187.64 455.825,393.61 304.205,393.61 304.205,187.64 "/>
<path style="fill:#BD9B7B;" d="M269.485,463.45c0,26.77-21.78,48.55-48.55,48.55c-26.76,0-48.54-21.78-48.54-48.55
	c0-26.76,21.78-48.54,48.54-48.54C247.705,414.91,269.485,436.69,269.485,463.45z"/>
<path style="fill:#A17852;" d="M436.695,463.45c0,26.77-21.77,48.55-48.54,48.55s-48.55-21.78-48.55-48.55
	c0-26.76,21.78-48.54,48.55-48.54S436.695,436.69,436.695,463.45z"/>
<g>
	<rect x="289.19" y="187.64" style="fill:#FFDBA9;" width="30" height="205.97"/>
	<polygon style="fill:#FFDBA9;" points="237.315,393.61 207.095,393.61 182.115,187.64 212.345,187.64 	"/>
</g>
<g>
	<polygon style="fill:#FFB74F;" points="423.835,187.64 398.865,393.61 368.645,393.61 393.615,187.64 	"/>
	<rect x="304.2" y="187.64" style="fill:#FFB74F;" width="14.99" height="205.97"/>
</g>
<g>
</g>
<g>
</g>
<g>
</g>
<g>
</g>
<g>
</g>
<g>
</g>
<g>
</g>
<g>
</g>
<g>
</g>
<g>
</g>
<g>
</g>
<g>
</g>
<g>
</g>
<g>
</g>
<g>
</g>
</svg>
