<?xml version="1.0" encoding="iso-8859-1"?>
<!-- Generator: Adobe Illustrator 19.0.0, SVG Export Plug-In . SVG Version: 6.00 Build 0)  -->
<svg version="1.1" id="Layer_1" xmlns="http://www.w3.org/2000/svg" xmlns:xlink="http://www.w3.org/1999/xlink" x="0px" y="0px"
	 viewBox="0 0 319.335 319.335" style="enable-background:new 0 0 319.335 319.335;" xml:space="preserve">
<g>
	<g>
		<path style="fill:#EAEAE1;" d="M303.858,253.887c-11.151-37.754-67.121-33.566-91.279-44.408
			c-24.157-10.842-20.386-47.219-23.449-53.548h-58.932c-3.058,6.329,0.714,42.711-23.449,53.548
			c-24.157,10.842-80.133,6.655-91.279,44.408c-6.149,20.824-5.857,27.193-7.554,50.26c0,0,76.8,15.187,150.014,15.187
			s153.488-15.187,153.488-15.187C309.715,281.074,310.007,274.712,303.858,253.887z"/>
		<path style="fill:#E0DBD3;" d="M303.858,253.887c-11.151-37.754-67.121-33.566-91.279-44.408
			c-24.157-10.842-20.386-47.219-23.449-53.548h-31.206c0,0-0.719,51.024,23.438,61.866s80.133,6.655,91.279,44.408
			c5.857,19.83,5.868,26.552,7.324,47.073c19.234-2.816,31.442-5.126,31.442-5.126C309.715,281.074,310.007,274.712,303.858,253.887
			z"/>
		<g>
			<polygon style="fill:#C6C5AF;" points="209.381,207.798 176.293,236.492 171.307,205.887 			"/>
			<polygon style="fill:#C6C5AF;" points="109.419,208.113 143.002,236.492 146.981,205.887 			"/>
			<polygon style="fill:#C6C5AF;" points="172.19,205.887 146.981,205.887 145.07,212.07 174.146,212.239 			"/>
			<polygon style="fill:#AAA88F;" points="146.981,205.887 145.07,212.07 146.172,212.789 			"/>
			<polygon style="fill:#AAA88F;" points="174.146,212.239 171.375,206.112 172.499,213.194 			"/>
			<path style="fill:#4C4C4C;" d="M173.617,319.109l0.579-7.987l-6.082-80.51H152.09l-7.099,80.515l0.585,8.066
				c4.12,0.084,8.24,0.141,12.354,0.141C163.135,319.335,168.373,319.249,173.617,319.109z"/>
			<polygon style="fill:#3A3A38;" points="152.152,230.966 168.115,230.607 168.441,235.103 			"/>
			<polygon style="fill:#4C4C4C;" points="140.725,208.551 178.44,208.529 176.293,221.4 167.777,230.966 152.152,230.966 
				142.878,221.4 			"/>
			<path style="fill:#EAEAE1;" d="M146.981,205.887l-25.72-13.984c0,0-3.389,4.817-11.843,16.21l31.723,22.853l2.704-14.923
				L146.981,205.887z"/>
			<path style="fill:#EAEAE1;" d="M171.307,205.887l25.72-13.984c0,0,3.901,4.502,12.354,15.895l-32.234,23.168l-2.704-14.923
				L171.307,205.887z"/>
			<path style="fill:#E0DBD3;" d="M197.027,191.903l-25.72,13.984l1.776,5.772c2.372,2.602,5.109,4.716,8.279,6.138
				c2.805,1.259,6.037,2.316,9.578,3.254l18.436-13.248C200.928,196.405,197.027,191.903,197.027,191.903z"/>
		</g>
		<g>
			
				<ellipse transform="matrix(-0.177 0.9842 -0.9842 -0.177 386.2379 -85.1184)" style="fill:#CCA483;" cx="228.707" cy="118.927" rx="21.386" ry="11.629"/>
			
				<ellipse transform="matrix(-0.9842 0.177 -0.177 -0.9842 200.5228 219.9815)" style="fill:#DBB491;" cx="90.45" cy="118.935" rx="11.629" ry="21.386"/>
			<path style="fill:#DBB491;" d="M223.826,47.734h-64.221H95.418c0,0-35.989,146.614,64.187,160.806
				C259.821,194.348,223.826,47.734,223.826,47.734z"/>
			<path style="fill:#CCA483;" d="M159.605,208.54c100.216-14.192,64.221-160.806,64.221-160.806h-15.024
				c4.114,61.242,9.808,93.774-13.815,129.24C176.27,205.078,159.605,208.54,159.605,208.54z"/>
			<path style="fill:#CCA483;" d="M192.851,55.603L90.494,83.734c8.661,3.468,25.574,9.864,61.748,9.707
				c20.133-0.09,64.412-6.239,74.203-29.795L192.851,55.603z"/>
			<path style="fill:#515151;" d="M223.478,34.031c0,0-7.633-27.322-58.027-33.409c-40.244-4.862-72.45,20.532-118.224,14.81
				c-0.219,25.377,6.222,54.351,31.419,65.328c-0.247,10.792,0.478,24.866,10.859,36.264c0,0-0.916-18.548,0.956-33.313
				c0,0,22.837,5.593,49.04,5.649c27.856,0.056,64.997-4.519,86.951-25.72c0,0,3.294,20.167,3.294,53.385
				c0,0,7.509-7.931,8.768-20.026C241.363,69.565,244.027,32.772,223.478,34.031z"/>
		</g>
	</g>
</g>
<g>
</g>
<g>
</g>
<g>
</g>
<g>
</g>
<g>
</g>
<g>
</g>
<g>
</g>
<g>
</g>
<g>
</g>
<g>
</g>
<g>
</g>
<g>
</g>
<g>
</g>
<g>
</g>
<g>
</g>
</svg>
