<?xml version="1.0" encoding="iso-8859-1"?>
<!-- Generator: Adobe Illustrator 21.0.0, SVG Export Plug-In . SVG Version: 6.00 Build 0)  -->
<svg version="1.1" id="Capa_1" xmlns="http://www.w3.org/2000/svg" xmlns:xlink="http://www.w3.org/1999/xlink" x="0px" y="0px"
	 viewBox="0 0 512 512" style="enable-background:new 0 0 512 512;" xml:space="preserve">
<g id="XMLID_906_">
	<g id="XMLID_907_">
		<path id="XMLID_908_" style="fill:#84B75B;" d="M512,443.275c0,7.89-1.125,15.516-3.217,22.728
			c-1.238,4.269-5.162,7.199-9.607,7.199H354.959c-3.668-9.261-5.687-19.357-5.687-29.927c0-42.619,32.77-77.583,74.482-81.075
			c2.266-0.196,4.564-0.288,6.882-0.288C475.573,361.911,512,398.338,512,443.275z"/>
		<path id="XMLID_909_" style="fill:#69A833;" d="M467.218,453.783c0,6.645-0.989,13.155-2.946,19.419H354.959
			c-3.668-9.261-5.687-19.357-5.687-29.927c0-42.619,32.77-77.583,74.482-81.075v30.153
			C449.046,401.316,467.218,425.463,467.218,453.783z"/>
	</g>
	<g id="XMLID_910_">
		<path id="XMLID_911_" style="fill:#A0D37D;" d="M157.045,473.198c3.853-9.738,5.883-20.396,5.665-31.554
			c-0.829-42.396-34.65-77.416-76.996-79.621C38.803,359.581,0,396.895,0,443.273c0,7.889,1.123,15.515,3.218,22.729
			c1.239,4.268,5.162,7.196,9.606,7.196H157.045z"/>
	</g>
	<g id="XMLID_912_">
		<path id="XMLID_913_" style="fill:#EBEEF2;" d="M411.393,193.839v279.354H91.364c-5.523,0-10-4.477-10-10V193.839l165.014-148.16
			L411.393,193.839z"/>
		<polygon id="XMLID_914_" style="fill:#D3D8DF;" points="162.545,473.196 411.395,224.335 411.395,473.196 		"/>
		<g id="XMLID_915_">
			<g id="XMLID_916_">
				<path style="fill:#7FB7EA;" d="M366.867,311.631h-19.049c-5.845,0-10.583,4.738-10.583,10.583v89.974h40.214v-89.974
					C377.449,316.369,372.711,311.631,366.867,311.631z"/>
				<path id="XMLID_917_" style="fill:#7FB7EA;" d="M155.525,412.188v-89.974c0-5.845-4.738-10.583-10.583-10.583h-19.049
					c-5.845,0-10.583,4.738-10.583,10.583v89.974"/>
			</g>
		</g>
		<path style="fill:#5F9EEB;" d="M411.397,473.198H91.363c-5.523,0-10-4.477-10-10v-51.01h330.034V473.198z"/>
		<path id="XMLID_918_" style="fill:#5F9EEB;" d="M411.395,412.187v61.009H91.366c-5.523,0-10-4.477-10-10v-51.009H411.395z"/>
		<polygon id="XMLID_919_" style="fill:#3A82D0;" points="411.395,412.187 411.395,473.196 162.545,473.196 223.554,412.187 		"/>
		<path id="XMLID_920_" style="fill:#7B8C98;" d="M298.098,322.214v150.982H194.663V322.214c0-5.845,4.738-10.583,10.583-10.583
			h82.269C293.36,311.631,298.098,316.369,298.098,322.214z"/>
		<polygon id="XMLID_921_" style="fill:#627687;" points="298.098,337.633 298.098,473.196 194.663,473.196 194.663,441.078 		"/>
		<g id="XMLID_922_">
			<polygon id="XMLID_923_" style="fill:#D3D8DF;" points="411.393,193.839 411.393,259.369 246.378,111.218 81.364,259.379 
				81.364,193.839 246.378,45.678 			"/>
			<path id="XMLID_924_" style="fill:#5F9EEB;" d="M427.129,256.889L246.38,94.61L65.631,256.889
				c-4.349,3.905-11.04,3.544-14.944-0.805l-17.674-19.686c-3.905-4.349-3.544-11.04,0.805-14.944L230.473,44.892
				c9.049-8.125,22.765-8.125,31.814,0l196.656,176.562c4.349,3.905,4.709,10.595,0.805,14.944l-17.674,19.686
				C438.169,260.434,431.478,260.794,427.129,256.889z"/>
		</g>
		<path id="XMLID_925_" style="fill:#455E6D;" d="M272.837,408.904c-4.268,0-7.726-3.459-7.726-7.726v-8.764
			c0-4.267,3.459-7.726,7.726-7.726c4.268,0,7.726,3.459,7.726,7.726v8.764C280.563,405.445,277.105,408.904,272.837,408.904z"/>
		<circle style="fill:#EB5777;" cx="246.38" cy="227.663" r="42.285"/>
	</g>
	<g id="XMLID_926_">
		<path id="XMLID_927_" style="fill:#A0D37D;" d="M453.557,465.478c1.053-4.653,1.491-9.54,1.225-14.57
			c-1.433-27.023-23.541-48.811-50.581-49.877c-30.129-1.188-54.927,22.885-54.927,52.75c0,6.856,1.308,13.407,3.686,19.417h90.855
			C448.46,473.198,452.532,470.009,453.557,465.478z"/>
	</g>
</g>
<g>
</g>
<g>
</g>
<g>
</g>
<g>
</g>
<g>
</g>
<g>
</g>
<g>
</g>
<g>
</g>
<g>
</g>
<g>
</g>
<g>
</g>
<g>
</g>
<g>
</g>
<g>
</g>
<g>
</g>
</svg>
