<?xml version="1.0" encoding="utf-8"?>
<!-- Generator: Adobe Illustrator 24.0.2, SVG Export Plug-In . SVG Version: 6.00 Build 0)  -->
<svg version="1.1" id="Layer_1" xmlns="http://www.w3.org/2000/svg" xmlns:xlink="http://www.w3.org/1999/xlink" x="0px" y="0px"
	 viewBox="0 0 512 512" enable-background="new 0 0 512 512" xml:space="preserve">
<g>
	<g>
		<g>
			<rect x="312.1" y="133.8" fill="#FCD751" width="32" height="38.4"/>
		</g>
		<g>
			<polygon fill="#FCD751" points="358.9,136.7 297.2,136.7 328,96.2 328,96.2 			"/>
		</g>
	</g>
	<g>
		<g>
			<rect x="48.1" y="119.8" fill="#1C4670" width="13.7" height="384.6"/>
		</g>
		<g>
			<rect x="13.9" y="463.4" fill="#1C4670" width="415.1" height="13.7"/>
		</g>
		<g>
			<rect x="81.2" y="355.9" fill="#AEBFCE" width="63.2" height="88"/>
		</g>
		<g>
			<rect x="144.5" y="324.2" fill="#FFA229" width="63.2" height="119.8"/>
		</g>
		<g>
			<rect x="207.9" y="264.5" fill="#1C4670" width="63.2" height="179.5"/>
		</g>
		<g>
			<rect x="271.3" y="220.6" fill="#FFA229" width="63.2" height="223.4"/>
		</g>
		<g>
			<rect x="334.6" y="162.7" fill="#AEBFCE" width="63.2" height="281.3"/>
		</g>
	</g>
	<g>
		<g>
			<polygon fill="#1C4670" points="111.8,327.3 99.7,318.8 135.4,267.7 168.1,267.7 201.6,204.1 235.5,204.1 268.9,155.4 
				301.9,155.4 334.3,96.1 346.3,83.2 357.1,93.2 345.8,105.4 310.6,170.2 276.6,170.2 243.3,218.8 210.5,218.8 177,282.5 
				143.1,282.5 			"/>
		</g>
		<g>
			<g>
				<polygon fill="#1C4670" points="367.3,114.4 380.3,57 324.1,74.4 				"/>
			</g>
		</g>
	</g>
	<g>
		<g>
			<rect x="436.1" y="327.1" fill="#FCD751" width="42.1" height="50.5"/>
		</g>
		<g>
			<polygon fill="#FCD751" points="497.7,330.9 416.5,330.9 457.1,277.6 457.1,277.6 			"/>
		</g>
	</g>
	<g>
		<g>
			<rect x="100.3" y="212.3" fill="#FCD751" width="42.1" height="50.5"/>
		</g>
		<g>
			<polygon fill="#FCD751" points="161.9,216.1 80.7,216.1 121.3,162.7 121.3,162.7 			"/>
		</g>
	</g>
	<g>
		<g>
			<rect x="207" y="47" fill="#FCD751" width="26.6" height="31.9"/>
		</g>
		<g>
			<polygon fill="#FCD751" points="245.9,49.4 194.6,49.4 220.3,15.7 220.3,15.7 			"/>
		</g>
	</g>
</g>
</svg>
