<?xml version="1.0" encoding="utf-8"?>
<!-- Generator: Adobe Illustrator 23.0.3, SVG Export Plug-In . SVG Version: 6.00 Build 0)  -->
<svg version="1.1" id="Layer_1" xmlns="http://www.w3.org/2000/svg" xmlns:xlink="http://www.w3.org/1999/xlink" x="0px" y="0px"
	 viewBox="0 0 150 150" style="enable-background:new 0 0 150 150;" xml:space="preserve">
<style type="text/css">
	.st0{fill:none;stroke:#000000;stroke-width:5;stroke-miterlimit:10;}
	.st1{fill:none;stroke:#000000;stroke-width:5;stroke-linecap:round;stroke-miterlimit:10;}
	.st2{fill:url(#SVGID_1_);}
	.st3{fill:url(#SVGID_2_);}
	.st4{fill:none;stroke:#000000;stroke-width:5;stroke-linejoin:round;stroke-miterlimit:10;}
	.st5{fill:none;stroke:#000000;stroke-width:5;stroke-linecap:round;stroke-linejoin:round;stroke-miterlimit:10;}
	.st6{fill:url(#SVGID_3_);}
	.st7{fill:url(#SVGID_4_);}
	.st8{fill:url(#SVGID_5_);}
	.st9{fill:url(#SVGID_6_);}
	.st10{fill:url(#SVGID_7_);}
	.st11{fill:url(#SVGID_8_);}
	.st12{fill:url(#SVGID_9_);}
</style>
<linearGradient id="SVGID_1_" gradientUnits="userSpaceOnUse" x1="10.9702" y1="73.7646" x2="139.0297" y2="73.7646">
	<stop  offset="0" style="stop-color:#FF1BC6"/>
	<stop  offset="1" style="stop-color:#0066A6"/>
</linearGradient>
<path class="st2" d="M108.2,76.5c0,1.4-1.1,2.5-2.5,2.5H47.8c-1.4,0-2.5-1.1-2.5-2.5s1.1-2.5,2.5-2.5h57.9
	C107.1,74,108.2,75.1,108.2,76.5z M118.5,92.6c0,1.3-1,2.3-2.3,2.3s-2.3-1-2.3-2.3s1-2.3,2.3-2.3c1.4,0,2.5-1.1,2.5-2.5
	s-1.1-2.5-2.5-2.5c-4,0-7.3,3.3-7.3,7.3s3.3,7.3,7.3,7.3s7.3-3.3,7.3-7.3c0-1.4-1.1-2.5-2.5-2.5S118.5,91.3,118.5,92.6z M37,92.6
	c0,1.3-1,2.3-2.3,2.3s-2.3-1-2.3-2.3s1-2.3,2.3-2.3c1.4,0,2.5-1.1,2.5-2.5s-1.1-2.5-2.5-2.5c-4,0-7.3,3.3-7.3,7.3s3.3,7.3,7.3,7.3
	c4,0,7.3-3.3,7.3-7.3c0-1.4-1.1-2.5-2.5-2.5S37,91.3,37,92.6z M139,78.7v13c0,1.4-1.1,2.5-2.5,2.5h-6.4c-0.8,7-6.7,12.5-13.9,12.5
	s-13.2-5.5-13.9-12.5H48.6c-0.8,7-6.7,12.5-13.9,12.5c-7.2,0-13.2-5.5-13.9-12.5h-1.3c-4.7,0-8.5-3.8-8.5-8.5v-9.2v-8.7v-5.8
	c0-1.4,1.1-2.5,2.5-2.5h16.6c1.9-4.5,7.8-16.6,18.5-18.5c0.1,0,0.3,0,0.4,0h33.8c0.9,0,1.7,0.5,2.2,1.2l4.6,7.8c0,0,0,0,0,0l1.6,2.7
	l5.4,9.2h24.2c0.1,0,0.1,0,0.2,0c2.4,0.2,5.7,1,8.8,2.6c1.4,0.5,6.3,2.6,8.4,9.1c0.1,0.4,0.2,0.8,0.3,1.2c0,0,0,0.1,0,0.1
	c0,0,0,0,0,0.1C138.9,76.1,139,77.4,139,78.7z M128,73h4.4c-1-1.5-2.3-2.6-3.7-3.4c-0.1,0.1-0.3,0.3-0.4,0.4
	C127.9,70.6,127.8,71.7,128,73z M88.4,57.8l-2.4-4.1H52.1c0,0-0.1,0-0.1,0c-2.6,0-5.8,4.8-6.8,6.9c0,0.1-0.1,0.2-0.2,0.3
	c-0.2,0.3-0.1,0.5,0,0.7c0.1,0.2,0.2,0.4,0.6,0.3l45.3,0L88.4,57.8z M16,74h3.9c0.3-1,0.4-2.3,0.1-3.1c-0.1-0.2-0.2-0.4-0.5-0.6H16
	V74z M43.7,92.6c0-5-4.1-9-9-9c-5,0-9,4.1-9,9s4.1,9,9,9C39.7,101.7,43.7,97.6,43.7,92.6z M125.2,92.6c0-5-4.1-9-9-9s-9,4.1-9,9
	s4.1,9,9,9S125.2,97.6,125.2,92.6z M134,78.7c0-0.3,0-0.5,0-0.8h-8.1c-1.1,0-2.1-0.8-2.4-1.8c-0.9-3.5-0.8-6.4,0.5-8.6
	c-1.6-0.5-3-0.6-3.3-0.7H95.1l-49.6,0c0,0-0.1,0-0.1,0c-2,0-3.9-1.1-4.9-2.9c-1-1.8-0.9-4,0.1-5.7c0.7-1.5,5.1-9.6,11.3-9.6
	c0,0,0.1,0,0.1,0H83l-1.7-2.8H49.2c-9.8,1.9-15,16.7-15,16.9c-0.3,1-1.3,1.7-2.4,1.7H16v0.8h4.1c0.3,0,0.6,0.1,0.9,0.2
	c1.7,0.7,3,1.9,3.6,3.6c1.4,3.6-0.4,8-0.7,8.5c-0.4,0.9-1.3,1.5-2.3,1.5H16v6.7c0,1.9,1.6,3.5,3.5,3.5h1.6c1.5-6.1,7-10.6,13.6-10.6
	c6.5,0,12,4.5,13.6,10.6h54.3c1.5-6.1,7-10.6,13.6-10.6s12,4.5,13.6,10.6h4.2V78.7z"/>
</svg>
