<?xml version="1.0" encoding="utf-8"?>
<!-- Generator: Adobe Illustrator 23.0.3, SVG Export Plug-In . SVG Version: 6.00 Build 0)  -->
<svg version="1.1" id="Layer_1" xmlns="http://www.w3.org/2000/svg" xmlns:xlink="http://www.w3.org/1999/xlink" x="0px" y="0px"
	 viewBox="0 0 512 512" style="enable-background:new 0 0 512 512;" xml:space="preserve">
<style type="text/css">
	.st0{fill:#141C28;}
</style>
<title>notepad-1-outline</title>
<path class="st0" d="M358.4,204.8c0,7.1-5.7,12.8-12.8,12.8h-128c-7.1,0-12.8-5.7-12.8-12.8s5.7-12.8,12.8-12.8l0,0h128
	C352.7,192,358.4,197.7,358.4,204.8z M166.4,192c-7.1,0-12.8,5.7-12.8,12.8s5.7,12.8,12.8,12.8s12.8-5.7,12.8-12.8
	S173.5,192,166.4,192L166.4,192z M345.6,243.2h-128c-7.1,0-12.8,5.7-12.8,12.8c0,7.1,5.7,12.8,12.8,12.8c0,0,0,0,0,0h128
	c7.1,0,12.8-5.7,12.8-12.8C358.4,248.9,352.7,243.2,345.6,243.2L345.6,243.2z M166.4,243.2c-7.1,0-12.8,5.7-12.8,12.8
	c0,7.1,5.7,12.8,12.8,12.8c7.1,0,12.8-5.7,12.8-12.8C179.2,248.9,173.5,243.2,166.4,243.2L166.4,243.2L166.4,243.2z M345.6,294.4
	h-128c-7.1,0-12.8,5.7-12.8,12.8c0,7.1,5.7,12.8,12.8,12.8h128c7.1,0,12.8-5.7,12.8-12.8C358.4,300.1,352.7,294.4,345.6,294.4z
	 M166.4,294.4c-7.1,0-12.8,5.7-12.8,12.8s5.7,12.8,12.8,12.8s12.8-5.7,12.8-12.8l0,0C179.2,300.1,173.5,294.4,166.4,294.4
	L166.4,294.4z M345.6,345.6h-128c-7.1,0-12.8,5.7-12.8,12.8c0,7.1,5.7,12.8,12.8,12.8h128c7.1,0,12.8-5.7,12.8-12.8
	C358.4,351.3,352.7,345.6,345.6,345.6z M166.4,345.6c-7.1,0-12.8,5.7-12.8,12.8s5.7,12.8,12.8,12.8s12.8-5.7,12.8-12.8l0,0
	C179.2,351.3,173.5,345.6,166.4,345.6L166.4,345.6z M345.6,396.8h-128c-7.1,0-12.8,5.7-12.8,12.8c0,7.1,5.7,12.8,12.8,12.8h128
	c7.1,0,12.8-5.7,12.8-12.8C358.4,402.5,352.7,396.8,345.6,396.8z M166.4,396.8c-7.1,0-12.8,5.7-12.8,12.8s5.7,12.8,12.8,12.8
	s12.8-5.7,12.8-12.8l0,0C179.2,402.5,173.5,396.8,166.4,396.8L166.4,396.8L166.4,396.8z M460.8,102.4V448c-0.1,35.3-28.7,63.9-64,64
	H115.2c-35.3-0.1-63.9-28.7-64-64V102.4c0.1-35.3,28.7-63.9,64-64H173c6-8,15.4-12.8,25.4-12.8h21.4c7-20,28.9-30.5,48.9-23.4
	c11,3.9,19.6,12.5,23.4,23.4h21.4c10,0,19.4,4.8,25.4,12.8h57.8C432.1,38.5,460.7,67.1,460.8,102.4z M243.2,38.4
	c0,7.1,5.7,12.8,12.8,12.8c7.1,0,12.8-5.7,12.8-12.8s-5.7-12.8-12.8-12.8C248.9,25.6,243.2,31.3,243.2,38.4L243.2,38.4z M192,96
	c0,3.5,2.9,6.4,6.4,6.4h115.2c3.5,0,6.4-2.9,6.4-6.4V57.6c0-3.5-2.9-6.4-6.4-6.4h-21.4c-7,20-28.9,30.5-48.9,23.4
	c-11-3.9-19.6-12.5-23.4-23.4h-21.4c-3.5,0-6.4,2.9-6.4,6.4V96z M435.2,102.4c0-21.2-17.2-38.4-38.4-38.4h-51.2v32
	c0,17.7-14.3,32-32,32H198.4c-17.7,0-32-14.3-32-32V64h-51.2C94,64,76.8,81.2,76.8,102.4V448c0,21.2,17.2,38.4,38.4,38.4h281.6
	c21.2,0,38.4-17.2,38.4-38.4V102.4z"/>
</svg>
